<?xml version="1.0" encoding="UTF-8" standalone="no"?>
<!-- Created with Inkscape (http://www.inkscape.org/) -->

<svg
   width="16"
   height="16"
   viewBox="0 0 4.2333331 4.2333333"
   version="1.1"
   id="svg19192"
   inkscape:version="1.2 (dc2aedaf03, 2022-05-15)"
   sodipodi:docname="faviconsvg.svg"
   xmlns:inkscape="http://www.inkscape.org/namespaces/inkscape"
   xmlns:sodipodi="http://sodipodi.sourceforge.net/DTD/sodipodi-0.dtd"
   xmlns="http://www.w3.org/2000/svg"
   xmlns:svg="http://www.w3.org/2000/svg">
  <sodipodi:namedview
     id="namedview19194"
     pagecolor="#ffffff"
     bordercolor="#000000"
     borderopacity="0.25"
     inkscape:showpageshadow="2"
     inkscape:pageopacity="0.0"
     inkscape:pagecheckerboard="0"
     inkscape:deskcolor="#d1d1d1"
     inkscape:document-units="px"
     showgrid="false"
     inkscape:zoom="16"
     inkscape:cx="12.5625"
     inkscape:cy="2.28125"
     inkscape:window-width="1128"
     inkscape:window-height="690"
     inkscape:window-x="-6"
     inkscape:window-y="-6"
     inkscape:window-maximized="1"
     inkscape:current-layer="layer1" />
  <defs
     id="defs19189" />
  <g
     inkscape:groupmode="layer"
     id="layer2"
     inkscape:label="Layer 2" />
  <g
     inkscape:label="Layer 1"
     inkscape:groupmode="layer"
     id="layer1">
    <g
       id="g33389"
       transform="matrix(0.06373843,0,0,0.06373843,-2.2908298,-0.77221202)">
      <g
         id="g27776">
        <rect
           style="fill:#000000;stroke:#000000;stroke-width:0.264999;stroke-dasharray:none;stroke-opacity:1"
           id="rect25864"
           width="2.0450211"
           height="19.349047"
           x="71.640457"
           y="46.193619"
           transform="rotate(7.6531127)" />
        <rect
           style="fill:#000000;stroke:#000000;stroke-width:0.264999;stroke-dasharray:none;stroke-opacity:1"
           id="rect25866"
           width="1.7304025"
           height="18.5625"
           x="63.09174"
           y="61.703388"
           transform="rotate(-4.8826235)" />
        <rect
           style="fill:#000000;stroke:#000000;stroke-width:0.264999;stroke-dasharray:none;stroke-opacity:1"
           id="rect25868"
           width="2.0450211"
           height="16.674788"
           x="88.827293"
           y="47.267208"
           transform="rotate(6.0820582)" />
        <rect
           style="fill:#000000;stroke:#000000;stroke-width:0.264999;stroke-dasharray:none;stroke-opacity:1"
           id="rect25870"
           width="1.8877118"
           height="18.405191"
           x="81.67601"
           y="62.861809"
           transform="rotate(-4.703198)" />
      </g>
      <ellipse
         style="fill:#ffffff;stroke:#000000;stroke-width:0.29666;stroke-dasharray:none;stroke-opacity:1"
         id="path25279"
         ry="13.650808"
         rx="8.6898203"
         cy="34.504772"
         cx="-56.136311"
         transform="matrix(-1,0,-0.23748146,0.97139207,0,0)" />
      <path
         style="fill:#ffffff;fill-opacity:1;stroke:#000000;stroke-width:0.397404;stroke-dasharray:none;stroke-opacity:1"
         d="m 61.317187,24.540104 c 0,0 0.595312,-3.836458 3.770312,-4.365625 3.175,-0.529167 4.101042,1.389062 4.101042,1.389062 0,0 0.859896,-1.25677 2.447396,-1.5875 1.5875,-0.330729 2.84427,0.529167 2.84427,0.529167 0,0 1.521355,-1.455208 3.373438,-1.256771 1.852083,0.198438 3.704166,2.579688 3.704166,2.579688 0,0 0.463021,-0.396875 2.116667,-0.264584 1.653646,0.132292 2.711979,1.389063 2.711979,1.389063 0,0 1.521354,-1.653646 3.704167,-0.992188 2.182812,0.661459 3.571875,2.645834 3.638021,4.630209 0.06615,1.984375 -0.33073,2.645833 -0.33073,2.645833 0,0 0.859896,0.396875 1.455209,1.918229 0.595312,1.521354 0.595312,2.910417 0.595312,2.910417 0,0 3.571875,0.661458 4.101042,4.365625 0.529162,3.704166 -1.521354,5.357812 -1.521354,5.357812 0.538972,4.41393 -0.994248,6.516924 -3.902605,7.408333 0,0 0.529166,2.711979 -1.719792,4.828646 -2.248958,2.116666 -4.233333,1.25677 -4.233333,1.25677 0,0 -0.529167,1.124479 -2.182813,1.785938 -1.653645,0.661458 -3.175,-0.132292 -3.175,-0.132292 0,0 -1.389062,2.778125 -4.034895,2.645833 -2.645834,-0.132291 -3.571875,-1.984375 -3.571875,-1.984375 0,0 -1.521354,0.198438 -2.976563,-0.330729 -1.455208,-0.529166 -1.5875,-1.852083 -1.5875,-1.852083 0,0 -1.653645,1.984375 -3.96875,1.984375 -2.315104,0 -3.770312,-2.447396 -3.770312,-2.447396 0,0 -0.727604,1.455208 -3.704167,0.727604 -2.976562,-0.727604 -3.505729,-5.423958 -3.505729,-5.423958 0,0 -2.976562,0.198438 -4.101041,-2.050521 -1.124479,-2.248958 -0.595313,-5.22552 -0.595313,-5.22552 L 50.46927,44.251561 c 0,0 1.322916,-0.926041 2.248958,-2.315104 0.926042,-1.389062 1.653646,-2.579687 1.653646,-2.579687 0,0 -0.330729,-1.5875 0.264583,-3.175 0.595313,-1.5875 1.852083,-2.844271 1.852083,-2.844271 0,0 -1.5875,-2.050521 -1.322916,-4.101041 0.264583,-2.050521 0.926041,-2.778125 0.926041,-2.778125 0,0 -1.25677,0.264583 -2.38125,-0.463021 -1.124479,-0.727604 -1.058333,-2.315104 -1.058333,-2.315104 L 52.05677,23.48177 c 0,0 -0.33073,1.256771 -2.050521,1.521354 -1.719792,0.264584 -2.447396,-0.79375 -2.447396,-0.79375 0,0 -2.050521,0.529167 -3.108854,-0.661458 -1.058333,-1.190625 -0.926042,-2.844271 -0.198438,-3.704166 0.727605,-0.859896 1.521355,-1.190625 1.521355,-1.190625 0,0 0.132291,-1.12448 1.455208,-1.91823 1.322917,-0.79375 3.373437,0.264584 3.373437,0.264584 0,0 0.79375,-0.595313 2.447396,-0.132292 1.653646,0.463021 1.5875,1.455208 1.5875,1.455208 0,0 1.058333,-0.79375 2.645833,-0.264583 1.5875,0.529167 1.785938,2.182813 1.785938,2.182813 0,0 0.859896,-0.33073 1.785937,0.859895 0.926042,1.190625 0.463022,3.439584 0.463022,3.439584 z"
         id="path28716"
         sodipodi:nodetypes="cscscscscsscscsccscscscscscscsccscscscsccscsscscscscsc" />
      <path
         style="fill:#ffffff;stroke:#000000;stroke-width:0.238049;stroke-dasharray:none;stroke-opacity:1"
         id="path25441-27"
         sodipodi:type="arc"
         sodipodi:cx="55.217453"
         sodipodi:cy="44.594326"
         sodipodi:rx="4.6645455"
         sodipodi:ry="5.5652704"
         sodipodi:start="0.45350331"
         sodipodi:end="3.1966513"
         sodipodi:arc-type="arc"
         d="m 59.410496,47.032568 a 4.6645455,5.5652704 0 0 1 -5.366407,2.948074 4.6645455,5.5652704 0 0 1 -3.484113,-5.692577"
         sodipodi:open="true" />
      <path
         style="fill:#ffffff;stroke:#000000;stroke-width:0.194969;stroke-dasharray:none;stroke-opacity:1"
         id="path25441-9-9"
         sodipodi:type="arc"
         sodipodi:cx="59.178688"
         sodipodi:cy="33.813168"
         sodipodi:rx="3.8598766"
         sodipodi:ry="4.5115047"
         sodipodi:start="0.62604888"
         sodipodi:end="3.5462839"
         sodipodi:open="true"
         sodipodi:arc-type="arc"
         d="M 62.306535,36.456673 A 3.8598766,4.5115047 0 0 1 57.276321,37.738675 3.8598766,4.5115047 0 0 1 55.630597,32.03683" />
      <path
         style="fill:#ffffff;stroke:#000000;stroke-width:0.238049;stroke-dasharray:none;stroke-opacity:1"
         id="path25441"
         sodipodi:type="arc"
         sodipodi:cx="59.866287"
         sodipodi:cy="29.581425"
         sodipodi:rx="4.6645455"
         sodipodi:ry="5.5652704"
         sodipodi:start="1.5180076"
         sodipodi:end="3.89092"
         sodipodi:arc-type="arc"
         d="m 60.112408,35.138943 a 4.6645455,5.5652704 0 0 1 -4.472063,-3.201516 4.6645455,5.5652704 0 0 1 0.810808,-6.146766"
         sodipodi:open="true" />
      <path
         style="fill:#ffffff;stroke:#000000;stroke-width:0.166896;stroke-dasharray:none;stroke-opacity:1"
         id="path25441-0"
         sodipodi:type="arc"
         sodipodi:cx="68.303131"
         sodipodi:cy="49.633045"
         sodipodi:rx="3.1476114"
         sodipodi:ry="4.0538993"
         sodipodi:start="1.1473706"
         sodipodi:end="3.515473"
         sodipodi:open="true"
         sodipodi:arc-type="arc"
         d="M 69.596441,53.328931 A 3.1476114,4.0538993 0 0 1 66.133248,52.56971 3.1476114,4.0538993 0 0 1 65.372966,48.152438" />
      <path
         style="fill:#ffffff;stroke:#000000;stroke-width:0.166896;stroke-dasharray:none;stroke-opacity:1"
         id="path25441-9"
         sodipodi:type="arc"
         sodipodi:cx="71.562347"
         sodipodi:cy="51.498711"
         sodipodi:rx="3.1476114"
         sodipodi:ry="4.0538993"
         sodipodi:start="0"
         sodipodi:end="3.6606784"
         sodipodi:arc-type="arc"
         d="M 74.709959,51.498711 A 3.1476114,4.0538993 0 0 1 72.643342,55.30604 3.1476114,4.0538993 0 0 1 69.157235,54.113838 3.1476114,4.0538993 0 0 1 68.829361,49.487626"
         sodipodi:open="true" />
      <path
         style="fill:#ffffff;stroke:#000000;stroke-width:0.1325;stroke-dasharray:none;stroke-opacity:1"
         id="path25441-9-5-5"
         sodipodi:type="arc"
         sodipodi:cx="49.499348"
         sodipodi:cy="22.246897"
         sodipodi:rx="2.8920968"
         sodipodi:ry="2.7808621"
         sodipodi:start="0.46246736"
         sodipodi:end="2.3948407"
         sodipodi:open="true"
         sodipodi:arc-type="arc"
         d="m 52.087642,23.4876 a 2.8920968,2.7808621 0 0 1 -2.178588,1.512113 2.8920968,2.7808621 0 0 1 -2.532213,-0.863892" />
      <path
         style="fill:#ffffff;stroke:#000000;stroke-width:0.1325;stroke-dasharray:none;stroke-opacity:1"
         id="path25441-9-5-5-9"
         sodipodi:type="arc"
         sodipodi:cx="55.53019"
         sodipodi:cy="23.753708"
         sodipodi:rx="2.8920968"
         sodipodi:ry="2.7808621"
         sodipodi:start="0"
         sodipodi:end="2.9658117"
         sodipodi:open="true"
         sodipodi:arc-type="arc"
         d="M 58.422286,23.753708 A 2.8920968,2.7808621 0 0 1 55.78405,26.523836 2.8920968,2.7808621 0 0 1 52.682659,24.240017" />
      <path
         style="fill:none;stroke:#000000;stroke-width:0.1325;stroke-dasharray:none;stroke-opacity:1"
         id="path25441-9-5-6"
         sodipodi:type="arc"
         sodipodi:cx="46.551632"
         sodipodi:cy="21.523872"
         sodipodi:rx="2.8920968"
         sodipodi:ry="2.7808621"
         sodipodi:start="0.47706357"
         sodipodi:end="3.0736212"
         sodipodi:open="true"
         sodipodi:arc-type="arc"
         d="m 49.120818,22.800768 a 2.8920968,2.7808621 0 0 1 -3.156637,1.445995 2.8920968,2.7808621 0 0 1 -2.297967,-2.534017" />
      <path
         style="fill:#ffffff;fill-opacity:1;stroke:#000000;stroke-width:0.184455;stroke-dasharray:none;stroke-opacity:1"
         id="path25441-9-97"
         sodipodi:type="arc"
         sodipodi:cx="80.218262"
         sodipodi:cy="33.457561"
         sodipodi:rx="3.8646767"
         sodipodi:ry="4.0330114"
         sodipodi:start="0"
         sodipodi:end="1.6723582"
         sodipodi:open="true"
         sodipodi:arc-type="arc"
         d="m 84.082938,33.457561 a 3.8646767,4.0330114 0 0 1 -1.274171,2.992847 3.8646767,4.0330114 0 0 1 -2.982335,1.019383" />
      <path
         style="fill:#ffffff;fill-opacity:1;stroke:#000000;stroke-width:0.184455;stroke-dasharray:none;stroke-opacity:1"
         id="path25441-9-6"
         sodipodi:type="arc"
         sodipodi:cx="78.877464"
         sodipodi:cy="38.716812"
         sodipodi:rx="3.8646767"
         sodipodi:ry="4.0330114"
         sodipodi:start="5.859308"
         sodipodi:end="2.8538001"
         sodipodi:open="true"
         sodipodi:arc-type="arc"
         d="m 82.400121,37.058044 a 3.8646767,4.0330114 0 0 1 -0.490279,4.159043 3.8646767,4.0330114 0 0 1 -3.763944,1.45982 3.8646767,4.0330114 0 0 1 -2.974167,-2.81538" />
      <path
         style="fill:#ffffff;fill-opacity:1;stroke:#000000;stroke-width:0.168323;stroke-dasharray:none;stroke-opacity:1"
         id="path25441-9-43"
         sodipodi:type="arc"
         sodipodi:cx="87.284721"
         sodipodi:cy="48.613411"
         sodipodi:rx="3.5938618"
         sodipodi:ry="3.6115148"
         sodipodi:start="5.3743629"
         sodipodi:end="2.6076667"
         sodipodi:arc-type="arc"
         d="m 89.493779,45.764719 a 3.5938618,3.6115148 0 0 1 1.260909,3.788796 3.5938618,3.6115148 0 0 1 -2.985225,2.638408 3.5938618,3.6115148 0 0 1 -3.578394,-1.740552"
         sodipodi:open="true" />
      <path
         style="fill:#ffffff;fill-opacity:1;stroke:#000000;stroke-width:0.184455;stroke-dasharray:none;stroke-opacity:1"
         id="path25441-9-8"
         sodipodi:type="arc"
         sodipodi:cx="74.629738"
         sodipodi:cy="36.436878"
         sodipodi:rx="3.8646767"
         sodipodi:ry="4.0330114"
         sodipodi:start="0.26784656"
         sodipodi:end="3.2760897"
         sodipodi:arc-type="arc"
         d="m 78.356612,37.504236 a 3.8646767,4.0330114 0 0 1 -4.499105,2.88432 3.8646767,4.0330114 0 0 1 -3.057544,-4.492472"
         sodipodi:open="true" />
      <path
         style="fill:#ffffff;stroke:#000000;stroke-width:0.238049;stroke-dasharray:none;stroke-opacity:1"
         id="path25441-6"
         sodipodi:type="arc"
         sodipodi:cx="60.310963"
         sodipodi:cy="45.64608"
         sodipodi:rx="4.6645455"
         sodipodi:ry="5.5652704"
         sodipodi:start="0.26209742"
         sodipodi:end="3.3906527"
         sodipodi:arc-type="arc"
         d="M 64.816208,47.08808 A 4.6645455,5.5652704 0 0 1 59.13174,51.030575 4.6645455,5.5652704 0 0 1 55.790344,44.274279"
         sodipodi:open="true" />
      <ellipse
         style="fill:#ffffff;stroke:#000000;stroke-width:0.264999;stroke-dasharray:none;stroke-opacity:1"
         id="path25924"
         transform="rotate(15)"
         cx="56.825123"
         cy="15.556293"
         rx="2.4382944"
         ry="4.3260064" />
      <ellipse
         style="fill:#ffffff;stroke:#000000;stroke-width:0.264999;stroke-dasharray:none;stroke-opacity:1"
         id="path25924-4"
         transform="rotate(20)"
         cx="51.477829"
         cy="12.348419"
         rx="2.4382944"
         ry="4.3260064" />
      <g
         id="g26901"
         transform="matrix(1.6166161,0,0,2.1302509,24.476353,-51.677866)"
         style="fill:#ffffff;fill-opacity:1;stroke:#000000;stroke-opacity:1">
        <path
           style="fill:#ffffff;fill-opacity:1;stroke:#000000;stroke-width:0.165245;stroke-dasharray:none;stroke-opacity:1"
           d="m 21.059785,36.948028 c 0,0 1.632084,-0.216303 2.811904,0.294954 1.17982,0.511255 3.465436,0.333141 3.500133,0.03933 0.01902,-0.161032 -2.988877,-1.986029 -4.050715,-1.671411 -1.061838,0.314619 -2.261322,1.337131 -2.261322,1.337131 z"
           id="path26778"
           sodipodi:nodetypes="csssc" />
        <path
           style="fill:#ffffff;fill-opacity:1;stroke:#000000;stroke-width:0.15669;stroke-dasharray:none;stroke-opacity:1"
           d="m 21.421625,36.869171 c 0,0 1.258658,-0.116774 2.168531,0.159234 0.909873,0.276008 2.809096,0.565051 2.672615,0.172274 -0.136481,-0.392779 -2.278337,-1.223219 -3.097222,-1.05337 -0.818886,0.169851 -1.743924,0.721866 -1.743924,0.721866 z"
           id="path26778-7"
           sodipodi:nodetypes="cssscc" />
      </g>
      <path
         style="fill:#000000;stroke:#000000;stroke-width:0.264999;stroke-dasharray:none;stroke-opacity:1"
         d="m 44.449999,38.364583 c 0,0 -3.439583,-1.852083 -1.190625,-2.645833 2.248959,-0.79375 4.365625,-0.264584 3.571875,0.926041 -0.79375,1.190625 -2.38125,1.719792 -2.38125,1.719792 z"
         id="path26959" />
      <path
         style="fill:#ffffff;stroke:#000000;stroke-width:0.229027;stroke-dasharray:none;stroke-opacity:1"
         d="m 44.526382,38.505966 -0.06674,2.44856 c 0,0 -0.931925,3.03691 -3.923194,0.84458"
         id="path26963"
         sodipodi:nodetypes="ccc" />
      <path
         style="fill:#ffffff;stroke:#000000;stroke-width:0.264999;stroke-dasharray:none;stroke-opacity:1"
         d="m 44.469373,40.823327 c 0,0 1.816213,4.37077 5.140001,1.046985 l 1.256771,-1.25677"
         id="path26965"
         sodipodi:nodetypes="csc" />
      <path
         style="fill:none;stroke:#000000;stroke-width:0.264999;stroke-dasharray:none;stroke-opacity:1"
         d="m 50.175391,39.378101 c 0.18005,1.790331 1.832379,1.453091 1.832379,1.453091"
         id="path26998" />
      <path
         style="fill:none;stroke:#000000;stroke-width:0.188689;stroke-dasharray:none;stroke-opacity:1"
         d="m 39.946803,42.06826 c 0.885956,0.153506 0.871068,-1.576677 0.871068,-1.576677"
         id="path26998-4" />
      <ellipse
         style="fill:#000000;stroke:#000000;stroke-width:0.267723;stroke-dasharray:none;stroke-opacity:1"
         id="path27022"
         cx="50.303955"
         cy="43.25375"
         rx="1.6037958"
         ry="1.937973"
         transform="matrix(0.97175403,-0.23599598,0.03667204,0.99932735,0,0)" />
      <ellipse
         style="fill:#000000;stroke:#000000;stroke-width:0.266706;stroke-dasharray:none;stroke-opacity:1"
         id="path27022-6"
         cx="48.571873"
         cy="31.289238"
         rx="1.5875"
         ry="1.9430149"
         transform="matrix(1,0,-0.15921671,0.98724366,0,0)" />
      <g
         id="g29019"
         transform="translate(2.0505208,-0.66145832)">
        <path
           style="fill:#ffffff;fill-opacity:1;stroke:#000000;stroke-width:0.397404;stroke-dasharray:none;stroke-opacity:1"
           d="m 50.373624,53.647676 1.49671,-1.216076 -1.707187,-5.448959 -0.818512,0.584653"
           id="path29001"
           sodipodi:nodetypes="cccc" />
        <path
           style="fill:#ffffff;fill-opacity:1;stroke:#000000;stroke-width:0.397404;stroke-dasharray:none;stroke-opacity:1"
           d="m 45.836723,47.614067 0.982215,-0.748356 3.367598,-0.02339"
           id="path29003"
           sodipodi:nodetypes="ccc" />
        <path
           style="fill:#ffffff;fill-opacity:1;stroke:#000000;stroke-width:0.397404;stroke-dasharray:none;stroke-opacity:1"
           d="m 45.836723,47.660837 -1.590254,5.565889 6.080381,0.467722 -0.958829,-6.150541 z"
           id="path28999"
           sodipodi:nodetypes="ccccc" />
        <g
           id="g29011">
          <path
             style="fill:#ffffff;fill-opacity:1;stroke:#000000;stroke-width:0.397404;stroke-dasharray:none;stroke-opacity:1"
             d="m 46.257672,48.596282 -0.420949,4.022405"
             id="path29005" />
          <path
             style="fill:#ffffff;fill-opacity:1;stroke:#000000;stroke-width:0.397404;stroke-dasharray:none;stroke-opacity:1"
             d="m 47.847928,48.806757 c 0,0 -1.122533,0.280632 -1.122533,1.824113 0,1.683797 1.239462,1.753958 1.239462,1.753958 0,0 1.216076,-4e-6 1.099145,-1.824115 -0.125704,-1.960963 -1.216074,-1.753956 -1.216074,-1.753956 z"
             id="path29007"
             sodipodi:nodetypes="cscsc" />
        </g>
      </g>
      <path
         style="fill:#ffffff;fill-opacity:1;stroke:#000000;stroke-width:0.397404;stroke-dasharray:none;stroke-opacity:1"
         d="m 49.180935,45.298844 c 0,0 0.04677,0.327406 0.257246,0.608039 0.210473,0.280633 0.841899,0.678195 0.841899,0.678195 0,0 1.536872,-0.05433 2.225974,-0.951494 0.627412,-0.81685 0.788764,-2.130483 0.788764,-2.130483"
         id="path29023"
         sodipodi:nodetypes="cscsc" />
      <path
         style="fill:#ffffff;fill-opacity:1;stroke:#000000;stroke-width:0.397404;stroke-dasharray:none;stroke-opacity:1"
         d="m 51.909711,43.745676 c -0.07016,1.064065 -1.419157,1.635018 -1.419157,1.635018 C 50.24966,45.199101 49.91666,45.07834 50.011138,44.597261"
         id="path29025"
         sodipodi:nodetypes="ccc" />
      <path
         style="fill:#ffffff;stroke:#000000;stroke-width:0.179846;stroke-dasharray:none;stroke-opacity:1"
         id="path25441-6-1"
         sodipodi:type="arc"
         sodipodi:cx="55.015415"
         sodipodi:cy="42.945335"
         sodipodi:rx="3.315177"
         sodipodi:ry="4.4695058"
         sodipodi:start="0.26209742"
         sodipodi:end="3.1179468"
         sodipodi:arc-type="arc"
         d="m 58.217374,44.103415 a 3.315177,4.4695058 0 0 1 -3.596278,3.279697 3.315177,4.4695058 0 0 1 -2.919931,-4.332101"
         sodipodi:open="true" />
    </g>
  </g>
</svg>
